<svg width="9" height="10" viewBox="0 0 9 10" fill="none" xmlns="http://www.w3.org/2000/svg">
<path d="M6.60264 4.25706V7.42075C6.60264 7.51106 6.58485 7.6005 6.55029 7.68394C6.51573 7.76738 6.46507 7.8432 6.4012 7.90706C6.33734 7.97093 6.26152 8.02159 6.17808 8.05615C6.09464 8.09071 6.0052 8.1085 5.91489 8.1085H1.78834C1.60594 8.1085 1.431 8.03604 1.30203 7.90706C1.17305 7.77808 1.10059 7.60315 1.10059 7.42075V3.2942C1.10059 3.1118 1.17305 2.93686 1.30203 2.80788C1.431 2.67891 1.60594 2.60645 1.78834 2.60645H4.66798" stroke="#545454" stroke-width="0.578683" stroke-linecap="round" stroke-linejoin="round"/>
<path d="M5.77734 1.50635H7.70385V3.43285" stroke="#545454" stroke-width="0.578683" stroke-linecap="round" stroke-linejoin="round"/>
<path d="M3.85156 5.35846L7.56598 1.64404" stroke="#545454" stroke-width="0.578683" stroke-linecap="round" stroke-linejoin="round"/>
</svg>
