<?xml version="1.0" encoding="UTF-8" standalone="no"?>
<svg
   width="31.443"
   height="30.526"
   version="1.1"
   id="svg1"
   sodipodi:docname="cross-football.svg"
   inkscape:version="1.3.1 (9b9bdc1480, 2023-11-25, custom)"
   xmlns:inkscape="http://www.inkscape.org/namespaces/inkscape"
   xmlns:sodipodi="http://sodipodi.sourceforge.net/DTD/sodipodi-0.dtd"
   xmlns="http://www.w3.org/2000/svg"
   xmlns:svg="http://www.w3.org/2000/svg">
  <defs
     id="defs1" />
  <sodipodi:namedview
     id="namedview1"
     pagecolor="#ffffff"
     bordercolor="#000000"
     borderopacity="0.25"
     inkscape:showpageshadow="2"
     inkscape:pageopacity="0.0"
     inkscape:pagecheckerboard="0"
     inkscape:deskcolor="#d1d1d1"
     inkscape:zoom="10.226943"
     inkscape:cx="14.080454"
     inkscape:cy="30.849885"
     inkscape:window-width="1982"
     inkscape:window-height="1083"
     inkscape:window-x="0"
     inkscape:window-y="0"
     inkscape:window-maximized="1"
     inkscape:current-layer="svg1" />
  <path
     fill-rule="evenodd"
     d="M26.782 4.465a14.188 14.188 0 0 0-4.988-3.216A15.82 15.82 0 0 0 15.694 0a16.321 16.321 0 0 0-6.1 1.249 14.657 14.657 0 0 0-4.991 3.282 15.026 15.026 0 0 0-3.346 4.792 14.318 14.318 0 0 0-1.261 5.973 14.017 14.017 0 0 0 1.248 5.909 14.6 14.6 0 0 0 3.346 4.858 16.891 16.891 0 0 0 4.991 3.282 16.306 16.306 0 0 0 6.1 1.182 15.829 15.829 0 0 0 6.1-1.182 16.373 16.373 0 0 0 5.054-3.282 14.554 14.554 0 0 0 3.361-4.859 15.088 15.088 0 0 0 1.249-5.909 15.415 15.415 0 0 0-1.249-5.972 16.256 16.256 0 0 0-3.412-4.858ZM7.024 3.481c.131-.131.262-.2.394-.33a18.019 18.019 0 0 1 2.494-1.312A15.883 15.883 0 0 1 15.69.723a16.768 16.768 0 0 1 4 .526 7.476 7.476 0 0 0-2.167 1.443 8.815 8.815 0 0 0-2.625 0 12.619 12.619 0 0 0-3.413.724 10.2 10.2 0 0 0-2.363 1.049 25.249 25.249 0 0 0-2.429-.787.877.877 0 0 0 .328-.2Zm14.311 3.806-2.692 7.09-6.433 1.248c-3.676-3.676-7.157-5.053-3.282-9.912a12.023 12.023 0 0 1 2.888-1.379 14.143 14.143 0 0 1 3.216-.721 11.134 11.134 0 0 1 2.56.065ZM1.313 14.771a13.168 13.168 0 0 0-.131 3.218 5.91 5.91 0 0 1-.33-.658C.787 16.675.72 15.953.72 15.295a14.268 14.268 0 0 1 1.315-6.038 17.543 17.543 0 0 0 .065 2.692 10.68 10.68 0 0 0-.787 2.822Zm1.312 5.579a14.18 14.18 0 0 1-.459-2.3 12.67 12.67 0 0 1 .721-5.384c3.94-3.282 5.318.328 8.536 3.546l-.527 5.784c-4.727 1.51-5.188 2.756-8.273-1.642Zm10.306 9.257a17.83 17.83 0 0 1-3.741-1.182 19.359 19.359 0 0 1-2.888-1.838c1.443-2.495-2.1-1.445 5.055-3.741l5.972 2.493c1.052 4.4 1.249 4.07-4.4 4.268Zm15.1-6.039a13.916 13.916 0 0 1-3.218 3.281c-4.465 3.019-5.644 1.772-6.563-1.773l4.2-4.264c4.857-.395 5.448-1.775 5.845 2.362a1.329 1.329 0 0 0-.263.394Zm-5.517-3.744-2.953-5.053 2.692-7.091 3.808.2a13.292 13.292 0 0 1 2.1 2.166 10.619 10.619 0 0 1 1.77 3.284c-.852 7.089-1.179 5.972-7.418 6.5Zm7.55-8.6a12.913 12.913 0 0 0-1.115-1.773 14.13 14.13 0 0 0-2.429-2.429 6.706 6.706 0 0 0-1.839-3.412.064.064 0 0 0 .066.065c.066.065.131.131.2.131a18.686 18.686 0 0 1 2.362 2.232 14.1 14.1 0 0 1 2.758 5.186Z"
     id="path1" />
  <path
     style="fill:#ffffff;fill-rule:evenodd;stroke:#ffffff;stroke-width:0.276566"
     d="M 11.854888,15.239792 C 11.685352,15.065408 10.939924,14.368026 10.19838,13.690051 8.7817755,12.394886 8.35164,11.939399 7.8776084,11.232493 6.9159401,9.7983945 7.1277812,8.2797703 8.57178,6.2561873 8.7760407,5.9699416 9.0339047,5.7108108 9.2552387,5.569371 11.236747,4.3031217 14.443154,3.4685807 16.719771,3.6265552 l 0.74807,0.051909 0.392766,0.3359116 c 0.216021,0.1847513 1.075073,1.0002623 1.909004,1.8122466 l 1.516238,1.4763351 -1.337261,3.5222525 -1.337261,3.522253 -3.152065,0.607297 c -1.733635,0.334014 -3.184478,0.606126 -3.224095,0.604694 -0.03962,-0.0014 -0.210743,-0.14528 -0.380279,-0.319662 z"
     id="path2" />
  <path
     style="fill:#ffffff;fill-rule:evenodd;stroke:#ffffff;stroke-width:0.276566"
     d="m 21.070433,17.268105 -1.464173,-2.506382 1.322778,-3.491649 c 0.727527,-1.9204064 1.332413,-3.5038215 1.344189,-3.5186998 0.01178,-0.014878 0.870051,0.012927 1.907277,0.061789 l 1.885865,0.088841 0.934084,0.9407635 c 1.290093,1.2993183 2.15301,2.5686553 2.697264,3.9676333 l 0.209214,0.537773 -0.211175,1.467332 c -0.535452,3.720535 -0.994207,4.420881 -3.065997,4.680626 -0.473897,0.05941 -3.601394,0.278355 -3.976203,0.278355 -0.08339,0 -0.556649,-0.749255 -1.583123,-2.506382 z"
     id="path3" />
  <path
     style="fill:#ffffff;fill-rule:evenodd;stroke:#ffffff;stroke-width:0.276566"
     d="m 20.120194,28.321261 c -0.723716,-0.342719 -1.273051,-1.236726 -1.694557,-2.757782 l -0.137179,-0.495023 2.124354,-2.128423 c 1.98456,-1.988362 2.140408,-2.128423 2.36834,-2.128423 0.134193,0 0.988051,-0.108898 1.897462,-0.241996 0.909412,-0.133097 1.842597,-0.241879 2.073747,-0.241737 0.883121,5.44e-4 1.177299,0.421512 1.399144,2.00218 l 0.112993,0.805088 -0.261657,0.376632 c -1.130725,1.627581 -2.51548,2.916683 -4.230562,3.93833 -1.652054,0.984103 -2.823498,1.263534 -3.652085,0.871154 z"
     id="path4" />
  <path
     style="fill:#ffffff;fill-rule:evenodd;stroke:#ffffff;stroke-width:0.276566"
     d="M 12.029324,29.351158 C 10.190968,28.883118 8.9398821,28.330497 7.4168624,27.31377 6.8947657,26.965232 6.4483829,26.648978 6.4249004,26.610982 c -0.023483,-0.03799 0.029472,-0.230526 0.1176767,-0.427846 0.1241528,-0.277738 0.1607993,-0.485183 0.1622633,-0.918525 0.00133,-0.393167 0.032758,-0.597271 0.1056034,-0.685794 0.1647813,-0.200244 0.8054985,-0.457454 2.7345548,-1.097762 l 1.8011434,-0.59785 2.969624,1.240531 2.969624,1.240532 0.153248,0.610331 c 0.623433,2.482907 0.566356,3.035416 -0.341426,3.304998 -0.358107,0.106346 -1.736312,0.22127 -3.235636,0.269809 -0.88291,0.02858 -0.984467,0.0176 -1.832252,-0.198248 z"
     id="path5" />
  <path
     style="fill:#ffffff;fill-rule:evenodd;stroke:#ffffff;stroke-width:0.276566"
     d="M 5.6992939,23.279558 C 5.5254817,23.230355 5.2454584,23.109062 5.0770198,23.010018 4.3389397,22.576019 2.757154,20.671844 2.5652763,19.986348 2.1899178,18.645352 2.0756944,16.743629 2.2829301,15.285523 c 0.1063673,-0.748399 0.4496994,-2.161798 0.6024147,-2.479968 0.1113267,-0.231939 1.2141529,-0.98234 1.7524629,-1.192436 0.3139381,-0.122526 0.5547724,-0.161041 1.0318003,-0.165012 0.5430437,-0.0045 0.6748136,0.01942 1.0349187,0.18804 0.802477,0.375754 1.326609,0.852297 2.869396,2.608863 0.5502033,0.626443 1.1825713,1.330724 1.4052643,1.565069 l 0.404894,0.426082 -0.259444,2.864406 -0.259444,2.864406 -0.627258,0.213178 c -0.3449917,0.117247 -1.2189452,0.416896 -1.9421191,0.665886 -1.445618,0.497728 -2.0303264,0.595803 -2.596522,0.435521 z"
     id="path6" />
  <path
     style="fill:#ffffff;fill-rule:evenodd;stroke:#ffffff;stroke-width:0.0488905"
     d="M 29.927077,10.954245 C 29.335704,9.8769278 28.659342,8.9918531 27.725298,8.0730383 27.354539,7.7083247 26.891651,7.2984014 26.593523,7.070764 26.558321,7.0438851 26.526885,7.0108929 26.523665,6.9974481 26.412243,6.5321612 26.354497,6.3321153 26.24829,6.043489 25.959279,5.2580713 25.515227,4.5175562 24.959291,3.8939119 c -0.08007,-0.08982 -0.08363,-0.096116 -0.0496,-0.087631 0.06101,0.015211 0.577323,0.4436874 1.035456,0.859303 0.262409,0.2380556 0.934294,0.9090936 1.172193,1.1707152 0.977041,1.0744697 1.885747,2.5544891 2.4771,4.0344844 0.173128,0.4332925 0.439877,1.2066805 0.427853,1.2404815 -0.002,0.0055 -0.0448,-0.06517 -0.09522,-0.15702 z"
     id="path7" />
  <path
     style="fill:#ffffff;fill-rule:evenodd;stroke:#ffffff;stroke-width:0.0977809"
     d="M 9.056959,4.4266776 C 8.9678252,4.3759505 7.9783946,4.0423872 7.4493764,3.8847189 7.1302302,3.7896008 6.8432018,3.7040178 6.8115356,3.6945345 6.7574034,3.6783232 6.7610578,3.6728347 6.8726487,3.6027505 6.9379271,3.5617524 7.0944952,3.44241 7.2205777,3.3375451 7.6970009,2.941296 9.0853306,2.1879148 10.046641,1.8039738 c 0.346595,-0.138428 1.109274,-0.3896191 1.538631,-0.5067541 1.226225,-0.33453189 2.451714,-0.51498522 3.766335,-0.55459248 1.177274,-0.0354693 2.694606,0.13025234 3.980116,0.43470468 l 0.313331,0.074207 -0.288886,0.1411841 c -0.549029,0.2683208 -1.115719,0.6470861 -1.582649,1.0578134 l -0.246287,0.2166424 -0.158894,-0.013564 c -0.08739,-0.00746 -0.290898,-0.02585 -0.452236,-0.040866 -0.377702,-0.035153 -1.418159,-0.014395 -1.82117,0.036334 -0.168061,0.021154 -0.470571,0.05565 -0.672244,0.076656 -1.001651,0.1043337 -1.805042,0.2912743 -3.038601,0.70705 C 10.523859,3.7227318 9.9359047,3.9793459 9.3136339,4.3364434 9.0988078,4.4597238 9.1088327,4.4561996 9.056959,4.4266776 Z"
     id="path8" />
  <path
     style="fill:#ffffff;fill-rule:evenodd;stroke:#ffffff;stroke-width:0.138283"
     d="M 0.99378882,17.570599 0.85256157,17.268105 0.79322006,16.472977 C 0.62083555,14.163165 0.92705308,12.066067 1.7346748,10.025526 1.8588453,9.7117965 1.9704892,9.4369125 1.9827723,9.414673 c 0.012283,-0.02224 0.024581,0.3822386 0.027328,0.89884 0.00275,0.516602 0.020153,1.092077 0.038679,1.278834 l 0.033683,0.339557 -0.1531436,0.386429 c -0.5343927,1.348438 -0.8376892,3.203961 -0.7990805,4.888656 0.0084,0.366358 0.012906,0.666105 0.010021,0.666105 -0.00288,0 -0.068796,-0.136123 -0.14647038,-0.302495 z"
     id="path9" />
  <path
     id="rect10"
     style="fill:#ff0000;fill-rule:evenodd;stroke:#ff0000;stroke-width:3.41171"
     d="m 7.1953241,6.5863307 c -0.0312,0 -0.061228,0.012321 -0.085135,0.036228 l -0.038039,0.038039 c -0.047814,0.047814 -0.047814,0.124268 0,0.1720817 l 8.4392469,8.4392466 -8.4392466,8.439247 c -0.047814,0.04782 -0.047814,0.124268 -6e-7,0.172082 l 0.03804,0.03804 c 0.047814,0.04782 0.1242686,0.04782 0.1720823,0 l 8.4392459,-8.439247 8.439247,8.439247 c 0.04782,0.04782 0.124268,0.04782 0.172082,0 l 0.03804,-0.03804 c 0.04782,-0.04782 0.04782,-0.124267 0,-0.172081 L 15.93164,15.271927 24.370887,6.8326799 c 0.04782,-0.047814 0.04782,-0.1242687 0,-0.1720825 l -0.03804,-0.03804 c -0.04782,-0.047814 -0.124268,-0.047813 -0.172082,7e-7 L 15.721518,15.061806 7.2822705,6.6225584 c -0.023907,-0.023907 -0.055747,-0.036228 -0.086946,-0.036228 z" />
</svg>
