<?xml version="1.0" encoding="UTF-8" standalone="no"?>
<svg
   height="53.333331"
   width="53.333331"
   viewBox="-36 -60 138.66666 239.99999"
   version="1.1"
   id="svg6"
   sodipodi:docname="telegram-logo-icon.svg"
   inkscape:version="1.3.1 (9b9bdc1480, 2023-11-25, custom)"
   xmlns:inkscape="http://www.inkscape.org/namespaces/inkscape"
   xmlns:sodipodi="http://sodipodi.sourceforge.net/DTD/sodipodi-0.dtd"
   xmlns="http://www.w3.org/2000/svg"
   xmlns:svg="http://www.w3.org/2000/svg">
  <sodipodi:namedview
     id="namedview6"
     pagecolor="#ffffff"
     bordercolor="#000000"
     borderopacity="0.25"
     inkscape:showpageshadow="2"
     inkscape:pageopacity="0.0"
     inkscape:pagecheckerboard="0"
     inkscape:deskcolor="#d1d1d1"
     inkscape:zoom="0.77333333"
     inkscape:cx="407.32759"
     inkscape:cy="267.02586"
     inkscape:window-width="1982"
     inkscape:window-height="1083"
     inkscape:window-x="0"
     inkscape:window-y="0"
     inkscape:window-maximized="1"
     inkscape:current-layer="svg6" />
  <defs
     id="defs4">
    <linearGradient
       gradientUnits="userSpaceOnUse"
       y2="180"
       y1="40.080002"
       x2="100.08"
       x1="160.08"
       id="a"
       gradientTransform="translate(-86.666665,-60)">
      <stop
         stop-color="#37aee2"
         offset="0"
         id="stop1" />
      <stop
         stop-color="#1e96c8"
         offset="1"
         id="stop2" />
    </linearGradient>
    <linearGradient
       gradientUnits="userSpaceOnUse"
       gradientTransform="matrix(1.0919,0,0,0.91583,-86.666665,-60)"
       y2="174.66"
       y1="131.039"
       x2="146.50301"
       x1="123.677"
       id="b">
      <stop
         stop-color="#eff7fc"
         offset="0"
         id="stop3" />
      <stop
         stop-color="#fff"
         offset="1"
         id="stop4" />
    </linearGradient>
  </defs>
  <circle
     fill="url(#a)"
     r="120"
     cy="60"
     cx="33.333336"
     id="circle4"
     style="fill:url(#a)" />
  <path
     d="m 11.333335,115 c -3.888,0 -3.227,-1.468 -4.568,-5.17 l -11.432,-37.623 88,-52.207"
     fill="#c8daea"
     id="path4" />
  <path
     d="m 11.333335,115 c 3,0 4.325,-1.372 6,-3 l 16,-15.558 -19.958,-12.035"
     fill="#a9c9dd"
     id="path5" />
  <path
     d="m 13.373335,84.41 48.36,35.729 c 5.519,3.045 9.501,1.468 10.876,-5.123 l 19.685,-92.763 c 2.015,-8.08 -3.08,-11.746 -8.36,-9.349 l -115.59,44.571 c -7.89,3.165 -7.843,7.567 -1.438,9.528 l 29.663,9.259 68.673,-43.325 c 3.242,-1.966 6.218,-0.91 3.776,1.258"
     fill="url(#b)"
     id="path6"
     style="fill:url(#b)" />
</svg>
