<?xml version="1.0" encoding="UTF-8" standalone="no"?>
<svg
   height="53.333344"
   width="50.58024"
   version="1.1"
   id="Layer_1"
   viewBox="-94.79835 -166.597 346.30002 666.38813"
   sodipodi:docname="viber-logo-icon.svg"
   inkscape:version="1.3.1 (9b9bdc1480, 2023-11-25, custom)"
   xmlns:inkscape="http://www.inkscape.org/namespaces/inkscape"
   xmlns:sodipodi="http://sodipodi.sourceforge.net/DTD/sodipodi-0.dtd"
   xmlns="http://www.w3.org/2000/svg"
   xmlns:svg="http://www.w3.org/2000/svg">
  <sodipodi:namedview
     id="namedview1"
     pagecolor="#ffffff"
     bordercolor="#000000"
     borderopacity="0.25"
     inkscape:showpageshadow="2"
     inkscape:pageopacity="0.0"
     inkscape:pagecheckerboard="0"
     inkscape:deskcolor="#d1d1d1"
     showgrid="false"
     inkscape:zoom="0.77333333"
     inkscape:cx="409.91379"
     inkscape:cy="267.02586"
     inkscape:window-width="1982"
     inkscape:window-height="1083"
     inkscape:window-x="0"
     inkscape:window-y="0"
     inkscape:window-maximized="1"
     inkscape:current-layer="Layer_1" />
  <defs
     id="defs199">
    <style
       id="style197">.cls-1{fill:#fff}.cls-3{fill:none;stroke:#fff;stroke-linecap:round;stroke-linejoin:round;stroke-width:16.86px}</style>
  </defs>
  <path
     id="path203"
     d="m 323.0085,-101.59868 c -16.56,-15.28 -83.48,-63.86 -232.539999,-64.52 0,0 -175.78,-10.6 -261.470001,67.999996 -47.7,47.71 -64.48,117.52 -66.25,204.070004 -1.77,86.55 -4.06,248.75 152.290001,292.73 h 0.15 l -0.1,67.11 c 0,0 -1,27.17 16.89,32.71 21.64,6.72 34.34,-13.93 55,-36.19 11.3400004,-12.22 27,-30.17 38.8,-43.89 106.929999,9 189.169999,-11.57 198.509999,-14.61 21.59,-7 143.76,-22.65 163.63,-184.84 20.51,-167.170004 -9.92,-272.910004 -64.91,-320.57 z"
     class="cls-1" />
  <path
     id="path205"
     d="m 288.2385,-67.828684 c -14,-12.72 -74.43,-50.689996 -200.519999,-51.239996 0,0 -149.31,-9.81 -221.790001,55.839996 -40.34,39.83 -53.93,99.06 -55.42,171.340004 -1.49,72.28 -9.21,210.36 123.000001,247.09 0,0 -0.52,102.51 -0.58,111.52 0,6.3 1,10.61 4.6,11.5 2.59,0.63 6.47,-0.71 9.77,-4 21.14,-21.23 88.82,-102.88 88.82,-102.88 90.809999,5.93 163.059999,-12 170.829999,-14.54 18.32,-5.89 117.41,-14.4 134.18,-149.86 17.33,-139.630004 -6.37,-234.940004 -52.89,-274.770004 z"
     fill="#7360f2" />
  <path
     id="path207"
     d="m 151.8285,102.17132 q -2.46,-49.590004 -50.38,-52.090004"
     class="cls-3" />
  <path
     id="path209"
     d="m 195.0785,116.67132 q 1,-46.200004 -27.37,-77.200004 c -19,-20.74 -45.3,-32.1600004 -79.049999,-34.6300004"
     class="cls-3" />
  <path
     id="path211"
     d="M 239.3585,133.99132 Q 238.7485,53.821316 191.4485,7.7113156 144.1485,-38.398684 73.798501,-38.888684"
     class="cls-3" />
  <path
     id="path213"
     d="m 103.1185,215.08132 c 0,0 11.85,1 18.23,-6.86 l 12.44,-15.65 c 6,-7.76 20.48,-12.71 34.66,-4.81 a 366.67,366.67 0 0 1 30.91,19.74 c 9.41,6.92 28.68,23 28.74,23 9.18,7.75 11.3,19.13 5.05,31.13 0,0.07 -0.05,0.19 -0.05,0.25 a 129.81,129.81 0 0 1 -25.89,31.88 c -0.12,0.06 -0.12,0.12 -0.23,0.18 q -13.38,11.18 -26.29,12.71 a 17.39,17.39 0 0 1 -3.84,0.24 35,35 0 0 1 -11.18,-1.72 l -0.28,-0.41 c -13.26,-3.74 -35.4,-13.1 -72.269999,-33.44 a 430.39,430.39 0 0 1 -60.72,-40.11 318.31,318.31 0 0 1 -27.3099996,-24.22 l -0.92,-0.92 -0.92,-0.92 -0.92,-0.92 c -0.31,-0.3 -0.61,-0.61 -0.92,-0.92 a 318.31,318.31 0 0 1 -24.2200004,-27.31 430.83,430.83 0 0 1 -40.11,-60.71 c -20.34,-36.880004 -29.7,-59.000004 -33.44,-72.280004 l -0.41,-0.28 a 35,35 0 0 1 -1.71,-11.18 16.87,16.87 0 0 1 0.23,-3.84 q 1.61,-12.89 12.73,-26.3100004 c 0.06,-0.11 0.12,-0.11 0.18,-0.23 a 129.53,129.53 0 0 1 31.88,-25.8799996 c 0.06,0 0.18,-0.06 0.25,-0.06 12,-6.25 23.38,-4.13 31.12,5 0.06,0.06 16.1100004,19.32999954 23.0000004,28.7399996 A 366.67,366.67 0 0 1 20.648501,39.911316 c 7.9,14.17 2.95,28.68 -4.81,34.66 l -15.6499996,12.44 c -7.9,6.38 -6.86,18.230004 -6.86,18.230004 0,0 23.1799996,87.73 109.7899986,109.84 z"
     class="cls-1" />
</svg>
