<svg width="13" height="13" viewBox="0 0 13 13" fill="none" xmlns="http://www.w3.org/2000/svg">
<path fill-rule="evenodd" clip-rule="evenodd" d="M4.21883 0.915437C3.82268 0.987555 3.58826 1.0739 3.31854 1.24704C2.88432 1.52574 2.5678 1.95962 2.43086 2.46382C2.38389 2.63677 2.37685 2.70477 2.37685 2.98549C2.37685 3.26622 2.38389 3.33421 2.43086 3.50717C2.5314 3.87729 2.71109 4.18472 2.98433 4.45414C3.75589 5.21482 4.9565 5.27317 5.80904 4.59144C6.15876 4.31177 6.42584 3.88352 6.53134 3.43324C6.58866 3.18856 6.58417 2.74636 6.52185 2.49951C6.33073 1.74247 5.7331 1.14978 4.97373 0.964126C4.80446 0.922746 4.34238 0.892945 4.21883 0.915437ZM2.00934 6.14046C1.55525 6.22175 1.19741 6.40561 0.875324 6.72318C0.55406 7.03993 0.365156 7.40077 0.286005 7.84891C0.259094 8.00129 0.253906 8.29611 0.253906 9.67314V11.3156H3.80758C5.7621 11.3156 7.36125 11.3097 7.36125 11.3025C7.36125 11.2953 7.33771 11.225 7.30897 11.1463C6.86703 9.9365 7.1749 8.5678 8.09478 7.65294C8.19591 7.55236 8.32561 7.43228 8.383 7.38611L8.48733 7.30214L8.39956 7.15626C8.03636 6.55258 7.43431 6.1742 6.74593 6.11701L6.58404 6.10356L6.53015 6.27822C6.5005 6.37431 6.21579 7.31039 5.89743 8.35842C5.5791 9.40646 5.31385 10.2499 5.30801 10.2327C5.29101 10.1827 4.725 7.36187 4.725 7.32719C4.725 7.30991 4.9054 7.02883 5.1259 6.70254L5.52678 6.10929H4.47191H3.41705L3.81793 6.70254C4.03843 7.02883 4.21883 7.31041 4.21883 7.3283C4.21883 7.36383 3.65318 10.1819 3.63586 10.2327C3.63 10.2499 3.36473 9.40646 3.0464 8.35842C2.72804 7.31039 2.44373 6.3756 2.41456 6.2811L2.36156 6.10929L2.26206 6.11116C2.20733 6.1122 2.09361 6.12539 2.00934 6.14046ZM10.1996 7.69285C9.36961 7.82159 8.66491 8.35986 8.35075 9.10503C8.22016 9.41477 8.17819 9.62512 8.17558 9.9828C8.1741 10.1839 8.18427 10.3605 8.20251 10.4514C8.43395 11.6029 9.48304 12.4128 10.6618 12.3501C11.8703 12.2858 12.836 11.3323 12.9011 10.139C12.9637 8.99097 12.1677 7.96628 11.0223 7.72044C10.8422 7.68177 10.3726 7.66602 10.1996 7.69285ZM10.9302 7.92271L11.072 7.94893L11.2225 8.20954C11.3663 8.45882 11.3715 8.4725 11.3419 8.52363C11.3249 8.55303 11.2329 8.71083 11.1374 8.87426L10.964 9.17144L10.5314 9.16582L10.0988 9.1602L9.90868 8.8374C9.80413 8.65987 9.7141 8.50337 9.70857 8.48962C9.70307 8.47588 9.7664 8.34826 9.84935 8.206L10.0001 7.94737L10.1623 7.92215C10.2515 7.90828 10.3386 7.89346 10.356 7.88921C10.4154 7.87471 10.7881 7.89647 10.9302 7.92271ZM9.80242 8.86435C9.90971 9.05051 9.99751 9.20959 9.99751 9.21788C9.99751 9.22617 9.90127 9.39698 9.78367 9.59747L9.56984 9.96197H9.16555H8.76127L8.60919 9.70217L8.45713 9.4424L8.50108 9.31355C8.57992 9.08243 8.72567 8.83082 8.8945 8.63436L8.98845 8.52502L9.29789 8.52546L9.60734 8.5259L9.80242 8.86435ZM12.1761 8.63436C12.3449 8.83082 12.4907 9.08243 12.5695 9.31355L12.6135 9.4424L12.4614 9.70217L12.3093 9.96197H11.9046H11.4998L11.3035 9.62356C11.1956 9.43744 11.0979 9.26965 11.0864 9.2507C11.0701 9.22388 11.1096 9.13975 11.2644 8.87127L11.4633 8.52629L11.7727 8.52565L12.0822 8.52502L12.1761 8.63436ZM9.76649 10.4045C9.87466 10.5906 9.97262 10.7585 9.98418 10.7774C10.0006 10.8044 9.96157 10.8877 9.80628 11.1571L9.60734 11.5022L9.30021 11.5026L8.99307 11.503L8.93902 11.4458C8.76633 11.2628 8.59017 10.9681 8.50281 10.7161L8.45743 10.5851L8.60936 10.3256L8.76127 10.0661H9.16555H9.56982L9.76649 10.4045ZM12.4602 10.3253L12.6127 10.5844L12.5488 10.7589C12.474 10.963 12.3417 11.192 12.1971 11.3677L12.0942 11.4926L11.7787 11.4976L11.4633 11.5026L11.2682 11.1638C11.1609 10.9774 11.0731 10.8179 11.0731 10.8093C11.0731 10.8007 11.169 10.6299 11.2862 10.4299L11.4993 10.0661H11.9035H12.3077L12.4602 10.3253ZM11.1617 11.1907C11.2659 11.3682 11.356 11.5249 11.3618 11.539C11.3677 11.553 11.3047 11.6806 11.2218 11.8225L11.0712 12.0806L10.9087 12.1094C10.7072 12.1451 10.3526 12.1453 10.1521 12.1097L10.0008 12.0829L9.85152 11.8272C9.76942 11.6866 9.70224 11.565 9.70224 11.5569C9.70224 11.5489 9.75311 11.4562 9.81529 11.3509C9.87748 11.2456 9.96817 11.0913 10.0168 11.008L10.1053 10.8566L10.5387 10.8622L10.9722 10.8679L11.1617 11.1907Z" fill="black"/>
</svg>
