<svg width="1376" height="1376" viewBox="0 0 1376 1376" fill="#ffffff" xmlns="http://www.w3.org/2000/svg">

<circle cx="671.729" cy="704.083" r="523.872" stroke="#929292" stroke-width="32.742"/>
<path d="M616.111 871.461H621.579C652.275 871.461 677.215 867.144 696.4 858.511C715.584 849.878 730.357 838.271 740.716 823.691C751.076 809.111 758.174 792.708 762.011 774.482C765.848 756.065 767.767 737.168 767.767 717.791V653.618C767.767 634.625 765.561 617.743 761.148 602.97C756.927 588.198 750.98 575.824 743.306 565.848C735.824 555.872 727.287 548.294 717.695 543.114C708.102 537.934 697.934 535.344 687.191 535.344C674.913 535.344 663.881 537.838 654.097 542.826C644.505 547.622 636.351 554.433 629.637 563.258C623.114 572.083 618.126 582.443 614.672 594.337C611.219 606.232 609.493 619.181 609.493 633.186C609.493 645.656 611.027 657.743 614.097 669.445C617.166 681.148 621.867 691.7 628.198 701.1C634.529 710.501 642.394 717.983 651.795 723.546C661.387 728.918 672.61 731.604 685.464 731.604C697.359 731.604 708.486 729.302 718.846 724.698C729.397 719.901 738.702 713.474 746.759 705.417C755.009 697.167 761.532 687.863 766.328 677.503C771.316 667.143 774.194 656.304 774.961 644.985H800.285C800.285 660.908 797.119 676.64 790.789 692.179C784.649 707.527 776.016 721.532 764.889 734.194C753.762 746.856 740.716 757.024 725.752 764.698C710.788 772.18 694.481 775.921 676.831 775.921C656.112 775.921 638.174 771.892 623.018 763.834C607.862 755.777 595.392 745.033 585.608 731.604C576.015 718.175 568.821 703.211 564.025 686.712C559.42 670.021 557.118 653.138 557.118 636.064C557.118 616.112 559.9 597.407 565.464 579.949C571.027 562.49 579.277 547.143 590.212 533.905C601.147 520.476 614.672 510.02 630.788 502.538C647.095 495.056 665.896 491.315 687.191 491.315C711.172 491.315 731.604 496.111 748.486 505.704C765.369 515.296 779.086 528.15 789.637 544.265C800.381 560.38 808.247 578.51 813.235 598.654C818.223 618.798 820.717 639.517 820.717 660.812V680.093C820.717 701.772 819.278 723.834 816.4 746.28C813.714 768.535 808.438 789.83 800.573 810.166C792.899 830.502 781.676 848.727 766.903 864.842C752.131 880.766 732.851 893.428 709.061 902.828C685.464 912.037 656.303 916.641 621.579 916.641H616.111V871.461Z" fill="#929292"/>
</svg>
